<?xml version="1.0" encoding="UTF-8"?>
<svg id="Layer_1" data-name="Layer 1" xmlns="http://www.w3.org/2000/svg" version="1.1" viewBox="0 0 428.16 424.8">
  <defs>
    <style>
      .cls-1 {
        fill: #febf00;
      }

      .cls-1, .cls-2 {
        stroke-width: 0px;
      }

      .cls-2 {
        fill: #fefefd;
      }
    </style>
  </defs>
  <path class="cls-1" d="M190.35.04c15.66,0,31.32,0,46.97,0,.25.15.49.41.76.44,3.37.49,6.75.88,10.11,1.43,34.85,5.77,66.3,19.43,94.32,40.9,26.77,20.52,47.49,46.04,62.17,76.39,11.33,23.43,18,48.17,20.22,74.14,1.72,20.19.62,40.2-3.31,60.06-4.63,23.37-12.99,45.34-25.09,65.86-18.21,30.89-42.59,55.76-73.26,74.29-35.57,21.5-74.25,31.57-115.82,30.42-31.3-.86-61-8.25-88.9-22.45-42.95-21.86-75.06-54.58-96.02-97.92C4.83,267.08-1.46,228.43,2.91,188.08c2.72-25.16,9.76-49.05,21.1-71.68,15.01-29.94,35.94-54.99,62.69-75.05C114.19,20.73,144.98,7.62,178.9,1.9c3.82-.64,7.74-.63,11.46-1.86ZM198.34,257.35c6.79,0,13.58-.03,20.37.03,1.44.01,1.99-.4,1.92-1.89-.11-2.39-.08-4.79-.02-7.19.14-5.62.68-11.15,3.66-16.15,2.93-4.91,7.31-8.41,11.6-11.98,9.33-7.76,19.5-14.44,28.49-22.65,12.45-11.37,20.21-24.93,21.07-42.05.55-10.85-.68-21.4-5.71-31.18-8.43-16.37-22.43-25.77-39.68-30.74-16.15-4.66-32.63-4.59-49.16-2.66-20.69,2.42-40.07,8.97-58.37,18.87-1.43.77-1.47,1.36-.8,2.69,5.24,10.4,10.4,20.84,15.59,31.27q1.86,3.75,5.73,1.87c15.47-7.48,31.43-13.29,48.78-14.39,7.81-.5,15.49-.12,22.79,3.04,6.23,2.69,10.63,7.09,11.93,13.95,1.33,6.99.16,13.64-3.3,19.88-3.45,6.23-8.79,10.7-14.13,15.14-7.25,6.01-15.23,11.09-22.23,17.44-8.66,7.85-15.76,16.68-18.74,28.31-2.27,8.87-1.92,17.89-2,26.91-.02,1.64,1.03,1.49,2.09,1.49,6.71,0,13.42,0,20.13,0ZM199.69,286.25c-2.03-.11-4.49.11-6.94.53-8.03,1.36-14.65,4.9-18.63,12.36-1.98,3.72-2.81,7.77-3.16,11.94-.42,4.98-.09,9.89,1.44,14.67,2.49,7.77,7.66,13.02,15.33,15.62,7.44,2.52,15.08,2.72,22.66.67,13.15-3.55,20.36-15.15,19.08-30.16-.74-8.69-3.57-16.22-11.23-21.15-5.49-3.53-11.67-4.58-18.55-4.47Z"/>
 
  <path class="cls-2" d="M198.34,257.35c-6.71,0-13.42,0-20.13,0-1.05,0-2.1.14-2.09-1.49.09-9.01-.27-18.04,2-26.91,2.98-11.63,10.08-20.46,18.74-28.31,7-6.35,14.98-11.43,22.23-17.44,5.35-4.44,10.69-8.91,14.13-15.14,3.45-6.24,4.63-12.89,3.3-19.88-1.3-6.86-5.7-11.25-11.93-13.95-7.3-3.15-14.98-3.53-22.79-3.04-17.35,1.11-33.31,6.91-48.78,14.39q-3.86,1.87-5.73-1.87c-5.19-10.43-10.35-20.87-15.59-31.27-.67-1.33-.63-1.92.8-2.69,18.29-9.91,37.68-16.45,58.37-18.87,16.52-1.93,33.01-2,49.16,2.66,17.25,4.97,31.26,14.37,39.68,30.74,5.03,9.77,6.26,20.32,5.71,31.18-.86,17.12-8.62,30.68-21.07,42.05-8.99,8.21-19.17,14.88-28.49,22.65-4.29,3.57-8.67,7.07-11.6,11.98-2.98,4.99-3.52,10.52-3.66,16.15-.06,2.39-.09,4.8.02,7.19.07,1.49-.48,1.9-1.92,1.89-6.79-.06-13.58-.03-20.37-.03Z"/>
  <path class="cls-2" d="M199.69,286.25c6.89-.11,13.06.94,18.55,4.47,7.66,4.92,10.49,12.46,11.23,21.15,1.28,15.01-5.93,26.61-19.08,30.16-7.58,2.04-15.22,1.84-22.66-.67-7.67-2.59-12.83-7.85-15.33-15.62-1.53-4.78-1.86-9.69-1.44-14.67.35-4.17,1.18-8.22,3.16-11.94,3.98-7.46,10.59-11,18.63-12.36,2.45-.41,4.91-.63,6.94-.53Z"/>
</svg>